<?xml version="1.0" encoding="iso-8859-1"?>
<svg version="1.1" baseProfile="basic" xmlns="http://www.w3.org/2000/svg" xmlns:xlink="http://www.w3.org/1999/xlink" x="0px"
	 y="0px" viewBox="0 0 50 50" xml:space="preserve">
<g id="Layer_1">
	<g>
		<g>
			<g>
				<path d="M25,48C12.317,48,2,37.683,2,25S12.317,2,25,2s23,10.317,23,23S37.683,48,25,48z M25,4C13.421,4,4,13.421,4,25
					s9.421,21,21,21s21-9.421,21-21S36.579,4,25,4z"/>
			</g>
		</g>
	</g>
</g>
<g id="&#x421;&#x43B;&#x43E;&#x439;_1">
	<g>
		<path d="M35.939,14.735c-0.295-0.184-0.663-0.199-0.973-0.044l-6.986,3.493c-0.005-0.002-0.008-0.007-0.012-0.009l-12.957-6.098
			c-0.31-0.146-0.672-0.122-0.962,0.061c-0.289,0.184-0.464,0.502-0.464,0.845v17.356c0,0.388,0.224,0.74,0.574,0.904l6.368,2.998
			v5.777c0,0.347,0.18,0.668,0.475,0.851c0.16,0.1,0.343,0.149,0.525,0.149c0.153,0,0.306-0.035,0.447-0.105l13.886-6.942
			c0.339-0.17,0.553-0.516,0.553-0.895V15.586C36.414,15.239,36.234,14.918,35.939,14.735z M15.586,29.704V14.559l10.12,4.763
			l-2.251,1.126l-5.522-2.291c-0.508-0.211-1.094,0.03-1.307,0.541c-0.212,0.51,0.03,1.095,0.541,1.307l3.921,1.626l-0.007,0.003
			c-0.339,0.17-0.553,0.516-0.553,0.895v1.044l-2.596-1.076c-0.508-0.21-1.094,0.031-1.307,0.541
			c-0.212,0.51,0.03,1.095,0.541,1.307l3.361,1.394v2.175l-2.596-1.076c-0.508-0.211-1.094,0.03-1.307,0.541
			c-0.212,0.51,0.03,1.095,0.541,1.307l3.361,1.394v1.954L15.586,29.704z M34.414,32.457l-11.886,5.942v-8.983
			c0-0.008,0-0.017,0-0.025v-4.315c0-0.008,0-0.017,0-0.025v-1.905l11.886-5.942V32.457z"/>
		<path d="M24.941,26.16c0.15,0,0.303-0.034,0.445-0.105l7.25-3.62c0.494-0.247,0.695-0.847,0.448-1.341
			c-0.247-0.495-0.85-0.693-1.341-0.448l-7.25,3.62c-0.494,0.247-0.695,0.847-0.448,1.341C24.221,25.958,24.574,26.16,24.941,26.16z
			"/>
		<path d="M24.941,30.5c0.15,0,0.303-0.034,0.445-0.105l7.25-3.62c0.494-0.247,0.695-0.847,0.448-1.341
			c-0.247-0.495-0.85-0.694-1.341-0.448l-7.25,3.62c-0.494,0.247-0.695,0.847-0.448,1.341C24.221,30.298,24.574,30.5,24.941,30.5z"
			/>
		<path d="M24.941,34.84c0.15,0,0.303-0.034,0.445-0.105l7.25-3.62c0.494-0.247,0.695-0.847,0.448-1.341
			c-0.247-0.496-0.85-0.693-1.341-0.448l-7.25,3.62c-0.494,0.247-0.695,0.847-0.448,1.341C24.221,34.638,24.574,34.84,24.941,34.84z
			"/>
	</g>
</g>
</svg>