<?xml version="1.0" ?>
<svg 
id="Layer_3"
height="64px"
width="64px" 
fill="#d2dfe1"
style="enable-background:new 0 0 64 64;" 
version="1.0" 
viewBox="0 0 64 64" 
xml:space="preserve" 
xmlns="http://www.w3.org/2000/svg" 
xmlns:xlink="http://www.w3.org/1999/xlink">
<g>
<path d="M54.04,10.74c-5.51-5.73-12.92-9.06-20.86-9.38c-7.93-0.32-15.59,2.4-21.54,7.67C5.68,14.31,2.04,21.57,1.39,29.5   C1.35,29.93,1.6,30.34,2,30.5l15.9,6.58c0.31,0.13,0.67,0.09,0.95-0.1c1.22-0.84,2.64-1.28,4.13-1.28c0.01,0,0.02,0,0.03,0h0.47   c0.33,0,0.64-0.16,0.82-0.43l7.08-10.25c0.12-0.17,0.18-0.37,0.18-0.57V24.3c0-2.03,0.59-3.99,1.71-5.67   c1.13-1.69,2.71-2.98,4.58-3.76s3.9-0.98,5.89-0.58c1.98,0.39,3.79,1.36,5.22,2.79c1.43,1.43,2.39,3.24,2.79,5.22   c0.39,1.99,0.19,4.02-0.58,5.89c-0.77,1.87-2.07,3.45-3.76,4.58c-1.68,1.12-3.63,1.72-5.66,1.72h-0.26c-0.21,0-0.41,0.07-0.58,0.19   l-10.1,7.21c-0.26,0.19-0.42,0.49-0.42,0.81v0.4c0.01,1.85-0.66,3.62-1.9,4.99c-1.23,1.38-2.92,2.23-4.76,2.41   c-1.84,0.19-3.66-0.32-5.14-1.42c-1.48-1.1-2.49-2.71-2.85-4.52c-0.06-0.33-0.29-0.6-0.6-0.73L3.77,39.13   c-0.35-0.15-0.76-0.08-1.05,0.18c-0.29,0.25-0.4,0.65-0.3,1.02c2.02,7.13,6.54,13.29,12.74,17.34c5.01,3.28,10.84,5,16.76,5   c1.4,0,2.82-0.1,4.22-0.29c7.34-1.02,14.05-4.66,18.91-10.25c4.82-5.54,7.49-12.63,7.53-19.96c0.01-0.06,0.02-0.13,0.02-0.2   C62.6,24.01,59.55,16.47,54.04,10.74z M60.59,31.96c0,6.93-2.5,13.62-7.04,18.85c-4.54,5.22-10.82,8.63-17.68,9.58   c-6.86,0.95-13.82-0.61-19.62-4.4C11.06,52.59,7.12,47.61,5,41.8l8.9,3.68c0.53,2.08,1.76,3.92,3.49,5.21   c1.88,1.4,4.2,2.04,6.54,1.81c2.33-0.23,4.48-1.32,6.05-3.07c1.54-1.71,2.39-3.92,2.41-6.22l9.42-6.72   c2.4-0.01,4.72-0.72,6.71-2.06c2.01-1.34,3.56-3.24,4.49-5.48c0.92-2.23,1.17-4.67,0.69-7.05c-0.47-2.38-1.63-4.54-3.34-6.25   c-1.71-1.71-3.87-2.87-6.24-3.34c-2.38-0.47-4.81-0.23-7.04,0.69c-2.23,0.93-4.13,2.48-5.47,4.49c-1.31,1.96-2.02,4.25-2.05,6.61   l-6.6,9.57c-1.69,0-3.33,0.46-4.77,1.34l-14.73-6.1c0.77-7.13,4.13-13.64,9.51-18.4c5.57-4.93,12.72-7.46,20.14-7.17   c7.42,0.3,14.35,3.41,19.5,8.77c5.11,5.31,7.95,12.28,8.01,19.64C60.6,31.83,60.59,31.9,60.59,31.96z"/><path d="M26.04,46.32c-0.43,0.43-0.94,0.77-1.51,1c-0.56,0.23-1.17,0.35-1.78,0.35c-0.61,0-1.21-0.12-1.77-0.36l-3.67-1.51   c0.52,1.1,1.35,2.02,2.39,2.65c1.04,0.63,2.24,0.95,3.45,0.92c1.22-0.03,2.4-0.42,3.4-1.11c1-0.69,1.78-1.65,2.25-2.78h0.03   c0.47-1.14,0.6-2.39,0.37-3.59c-0.23-1.21-0.81-2.33-1.66-3.21c-0.86-0.88-1.95-1.5-3.15-1.77c-1.2-0.27-2.45-0.18-3.6,0.25   l3.76,1.56c0.56,0.23,1.07,0.58,1.5,1.01c0.43,0.43,0.77,0.94,1,1.51c0.23,0.56,0.35,1.17,0.35,1.78c0,0.61-0.12,1.21-0.35,1.78   C26.82,45.38,26.48,45.89,26.04,46.32z"/><path d="M40.07,32.6c0.55,0.11,1.1,0.16,1.66,0.16c1.1,0,2.2-0.22,3.23-0.65c1.55-0.64,2.86-1.72,3.79-3.12   c0.93-1.39,1.42-3.02,1.42-4.7c0-2.26-0.88-4.38-2.48-5.98s-3.72-2.48-5.98-2.48c-1.68,0-3.31,0.49-4.7,1.43   c-1.39,0.93-2.47,2.24-3.11,3.8c-0.64,1.55-0.81,3.24-0.48,4.89c0.33,1.65,1.13,3.15,2.31,4.33C36.92,31.48,38.42,32.28,40.07,32.6   z M35.75,21.83c0.49-1.19,1.31-2.19,2.38-2.9c0,0,0,0,0,0c1.06-0.71,2.3-1.09,3.58-1.09c1.72,0,3.34,0.67,4.56,1.89   c1.22,1.22,1.89,2.84,1.89,4.57c0,1.29-0.38,2.53-1.09,3.59c-0.71,1.07-1.71,1.89-2.9,2.38s-2.47,0.62-3.73,0.37   c-1.26-0.25-2.4-0.86-3.31-1.77c-0.91-0.9-1.52-2.05-1.77-3.31C35.14,24.31,35.26,23.02,35.75,21.83z"/></g></svg>